. 
  
http://www.torrenting.com/        :     Greatest Movie Tracker on The Net!!!
 
http://www.Torrenting.com          :     Once & For all ;)


               www . Torrenting . Com 

(((((((((((((= Enjoy No RAR releases =))))))))))))))))))))


...................................NFO:....................................

.[img]http://img811.imageshack.us/img811/5682/insidiousblurayartwork.jpg[/img]

[color=blue][size=5][b]Insidious.2010.RC.BDRip.XVID.AC3.HQ.Hive-CM8[/b][/size][/color]


[b]Thx Hive


CM8 Doing It Right The First Time :D


Source Full Russian Bluray
ASTRAL_VIV_BLUEBIRD

Video: 720x304 @bitrate 1900 2pass
Audio: English DTS to AC3 5.1 @448
Sample: yes included[/b]


[url]http://www.imdb.com/title/tt1591095/[/url]


General
Complete name                    : Insidious.2010.RC.BDRip.XVID.AC3.HQ.Hive-CM8.avi
Format                           : AVI
Format/Info                      : Audio Video Interleave
File size                        : 1.72 GiB
Duration                         : 1h 42mn
Overall bit rate                 : 2 403 Kbps
Writing application              : Nandub v1.0rc2
Writing library                  : Nandub build 1853/release

Video
ID                               : 0
Format                           : MPEG-4 Visual
Format profile                   : Advanced Simple@L5
Format settings, BVOP            : 2
Format settings, QPel            : Yes
Format settings, GMC             : No warppoints
Format settings, Matrix          : Default (H.263)
Muxing mode                      : Packed bitstream
Codec ID                         : XVID
Codec ID/Hint                    : XviD
Duration                         : 1h 42mn
Bit rate                         : 1 946 Kbps
Width                            : 720 pixels
Height                           : 304 pixels
Display aspect ratio             : 2.35:1
Frame rate                       : 23.976 fps
Color space                      : YUV
Chroma subsampling               : 4:2:0
Bit depth                        : 8 bits
Scan type                        : Progressive
Compression mode                 : Lossy
Bits/(Pixel*Frame)               : 0.371
Stream size                      : 1.39 GiB (81%)
Writing library                  : XviD 1.2.1 (UTC 2008-12-04)

Audio
ID                               : 1
Format                           : AC-3
Format/Info                      : Audio Coding 3
Mode extension                   : CM (complete main)
Codec ID                         : 2000
Duration                         : 1h 42mn
Bit rate mode                    : Constant
Bit rate                         : 448 Kbps
Channel(s)                       : 6 channels
Channel positions                : Front: L C R, Side: L R, LFE
Sampling rate                    : 48.0 KHz
Bit depth                        : 16 bits
Compression mode                 : Lossy
Stream size                      : 328 MiB (19%)
Alignment                        : Split accross interleaves
Interleave, duration             : 42 ms (1.00 video frame)
Interleave, preload duration     : 500 ms


Patrick Wilson   ...    Josh Lambert
Rose Byrne       ...    Renai Lambert
Ty Simpkins      ...    Dalton Lambert
Andrew Astor     ...    Foster Lambert
Lin Shaye        ...    Elise Rainier
Barbara Hershey  ...    Lorraine Lambert


A family looks to prevent evil spirits from trapping their
comatose child in a realm called The Further. 


[img]http://img848.imageshack.us/img848/8541/18023863.png[/img]
[img]http://img803.imageshack.us/img803/6829/iniinniinn.png[/img]
[img]http://img821.imageshack.us/img821/8867/iniinnin.png[/img]
[img]http://img196.imageshack.us/img196/9980/inin.png[/img]
[img]http://img221.imageshack.us/img221/1355/ininine.png[/img]


covers + label:

[img]http://img9.imageshack.us/img9/3743/insidious2010cdcover536.jpg[/img]

[img]http://img33.imageshack.us/img33/7678/insidious2011frontcover.jpg[/img]

[img]http://img21.imageshack.us/img21/3645/insidious2010cd.jpg[/img]




Greetz

ViSiON,SANTi,MAGNET,THC,T0XiC,iNK,LKRG,IMAGiNE,WBZ,FLAWL3SS,NOVA
D2U,Vik,OneTwo,Rapeseed,SAFC,goldadvance,MEMORY100,KaN1vE,Unevano,
Pinnz,Wayne,Mr Hive and all P2P groups 
Great Work Guys :D

FYS

CM8@hushmail.com